<svg xmlns="http://www.w3.org/2000/svg" xmlns:xlink="http://www.w3.org/1999/xlink" width="1080" zoomAndPan="magnify" viewBox="0 0 810 809.999993" height="1080" preserveAspectRatio="xMidYMid meet" version="1.2"><defs><clipPath id="d1b4848788"><path d="M 51.011719 267.4375 L 242 267.4375 L 242 463 L 51.011719 463 Z M 51.011719 267.4375 "/></clipPath><clipPath id="127ede3927"><path d="M 233.71875 377.917969 L 76.226562 460.078125 C 70.882812 462.867188 64.46875 462.660156 59.316406 459.535156 C 54.160156 456.410156 51.011719 450.820312 51.011719 444.792969 L 51.011719 284.738281 C 51.011719 278.710938 54.160156 273.121094 59.316406 269.996094 C 64.46875 266.871094 70.882812 266.664062 76.226562 269.453125 L 233.71875 351.609375 C 238.621094 354.167969 241.691406 359.238281 241.691406 364.765625 C 241.691406 370.292969 238.621094 375.363281 233.71875 377.917969 Z M 233.71875 377.917969 "/></clipPath><clipPath id="e787a1c5c1"><path d="M 85.824219 347.460938 L 277 347.460938 L 277 543 L 85.824219 543 Z M 85.824219 347.460938 "/></clipPath><clipPath id="5329c58901"><path d="M 268.53125 457.945312 L 111.042969 540.101562 C 105.695312 542.890625 99.285156 542.683594 94.128906 539.558594 C 88.972656 536.433594 85.824219 530.84375 85.824219 524.816406 L 85.824219 364.761719 C 85.824219 358.734375 88.972656 353.144531 94.128906 350.019531 C 99.285156 346.894531 105.695312 346.6875 111.042969 349.476562 L 268.53125 431.636719 C 273.433594 434.191406 276.507812 439.261719 276.507812 444.789062 C 276.507812 450.316406 273.433594 455.386719 268.53125 457.945312 Z M 268.53125 457.945312 "/></clipPath></defs><g id="dc42158e29"><g clip-rule="nonzero" clip-path="url(#d1b4848788)"><g clip-rule="nonzero" clip-path="url(#127ede3927)"><path style="fill:none;stroke-width:23.128061;stroke-linecap:butt;stroke-linejoin:miter;stroke:#41ade3;stroke-opacity:1;stroke-miterlimit:4;" d="M 134.218752 27.827318 L 224.889932 201.634224 C 227.967916 207.531536 227.739438 214.610036 224.290717 220.296114 C 220.841996 225.986504 214.673097 229.46109 208.021377 229.46109 L 31.38652 229.46109 C 24.734799 229.46109 18.5659 225.986504 15.117179 220.296114 C 11.668458 214.610036 11.439981 207.531536 14.517964 201.634224 L 105.184834 27.827318 C 108.008474 22.417137 113.604023 19.028769 119.703948 19.028769 C 125.803873 19.028769 131.399423 22.417137 134.218752 27.827318 Z M 134.218752 27.827318 " transform="matrix(0,0.906133,-0.906133,0,258.934003,256.297918)"/></g></g><g clip-rule="nonzero" clip-path="url(#e787a1c5c1)"><g clip-rule="nonzero" clip-path="url(#5329c58901)"><path style="fill:none;stroke-width:23.128061;stroke-linecap:butt;stroke-linejoin:miter;stroke:#41ade3;stroke-opacity:1;stroke-miterlimit:4;" d="M 134.221504 27.828491 L 224.888374 201.631086 C 227.966357 207.53271 227.737879 214.606898 224.289159 220.297287 C 220.840438 225.987677 214.671539 229.462263 208.019818 229.462263 L 31.384961 229.462263 C 24.733241 229.462263 18.564342 225.987677 15.115621 220.297287 C 11.6669 214.606898 11.438422 207.53271 14.516406 201.631086 L 105.187586 27.828491 C 108.006915 22.41831 113.602465 19.025631 119.70239 19.025631 C 125.802315 19.025631 131.397864 22.41831 134.221504 27.828491 Z M 134.221504 27.828491 " transform="matrix(0,0.906133,-0.906133,0,293.747566,336.322767)"/></g></g><g style="fill:#41ade3;fill-opacity:1;"><g transform="translate(286.511692, 478.648174)"><path style="stroke:none" d="M 5.9375 -94.015625 C 5.9375 -96.984375 7.015625 -99.59375 9.171875 -101.84375 C 11.328125 -104.09375 13.976562 -105.21875 17.125 -105.21875 C 20.28125 -105.21875 22.9375 -104.09375 25.09375 -101.84375 C 27.25 -99.59375 28.328125 -96.984375 28.328125 -94.015625 C 28.328125 -90.867188 27.25 -88.21875 25.09375 -86.0625 C 22.9375 -83.90625 20.28125 -82.828125 17.125 -82.828125 C 13.976562 -82.828125 11.328125 -83.90625 9.171875 -86.0625 C 7.015625 -88.21875 5.9375 -90.867188 5.9375 -94.015625 Z M 26.578125 -66.234375 L 26.578125 0 L 7.6875 0 L 7.6875 -66.234375 Z M 26.578125 -66.234375 "/></g></g><g style="fill:#41ade3;fill-opacity:1;"><g transform="translate(320.6362, 478.648174)"><path style="stroke:none" d="M 66.09375 0 L 47.21875 0 L 47.21875 -38.3125 C 47.21875 -43.164062 46.492188 -46.875 45.046875 -49.4375 C 43.609375 -52 40.910156 -53.28125 36.953125 -53.28125 C 33.359375 -53.28125 30.570312 -51.863281 28.59375 -49.03125 C 26.613281 -46.195312 25.625 -41.273438 25.625 -34.265625 L 25.625 0 L 6.75 0 L 6.75 -66.234375 L 25.625 -66.234375 L 25.625 -60.15625 L 25.90625 -60.15625 C 27.875 -63.125 30.390625 -65.238281 33.453125 -66.5 C 36.515625 -67.757812 39.753906 -68.390625 43.171875 -68.390625 C 50.804688 -68.390625 56.535156 -66.070312 60.359375 -61.4375 C 64.179688 -56.8125 66.09375 -50 66.09375 -41 Z M 66.09375 0 "/></g></g><g style="fill:#41ade3;fill-opacity:1;"><g transform="translate(393.471134, 478.648174)"><path style="stroke:none" d="M 50.171875 -59.890625 L 50.171875 -66.234375 L 69.0625 -66.234375 L 69.0625 -3.375 C 69.0625 9.125 66.40625 18.703125 61.09375 25.359375 C 55.789062 32.015625 47.742188 35.34375 36.953125 35.34375 C 27.878906 35.34375 20.171875 32.78125 13.828125 27.65625 C 7.484375 22.53125 4.039062 15.921875 3.5 7.828125 L 23.46875 7.828125 C 23.914062 11.328125 25.304688 14.132812 27.640625 16.25 C 29.984375 18.363281 32.957031 19.421875 36.5625 19.421875 C 41.59375 19.421875 45.117188 17.800781 47.140625 14.5625 C 49.160156 11.332031 50.171875 6.613281 50.171875 0.40625 L 50.171875 -6.609375 L 49.90625 -6.609375 C 47.925781 -3.910156 45.296875 -1.773438 42.015625 -0.203125 C 38.734375 1.367188 35.335938 2.15625 31.828125 2.15625 C 23.015625 2.15625 15.84375 -1.144531 10.3125 -7.75 C 4.78125 -14.363281 2.015625 -22.660156 2.015625 -32.640625 C 2.015625 -39.203125 3.34375 -45.269531 6 -50.84375 C 8.65625 -56.425781 12.34375 -60.742188 17.0625 -63.796875 C 21.78125 -66.859375 27.019531 -68.390625 32.78125 -68.390625 C 35.925781 -68.390625 39.09375 -67.625 42.28125 -66.09375 C 45.476562 -64.5625 48.019531 -62.492188 49.90625 -59.890625 Z M 36.6875 -51.65625 C 32.375 -51.65625 28.707031 -49.8125 25.6875 -46.125 C 22.675781 -42.445312 21.171875 -38.085938 21.171875 -33.046875 C 21.171875 -28.097656 22.675781 -23.78125 25.6875 -20.09375 C 28.707031 -16.40625 32.421875 -14.5625 36.828125 -14.5625 C 41.140625 -14.5625 44.820312 -16.382812 47.875 -20.03125 C 50.9375 -23.675781 52.46875 -28.015625 52.46875 -33.046875 C 52.46875 -38.171875 50.9375 -42.550781 47.875 -46.1875 C 44.820312 -49.832031 41.09375 -51.65625 36.6875 -51.65625 Z M 36.6875 -51.65625 "/></g></g><g style="fill:#41ade3;fill-opacity:1;"><g transform="translate(469.273415, 478.648174)"><path style="stroke:none" d="M 21.984375 -30.078125 C 21.984375 -24.597656 23.148438 -20.257812 25.484375 -17.0625 C 27.828125 -13.875 31.023438 -12.28125 35.078125 -12.28125 C 38.222656 -12.28125 40.804688 -13.132812 42.828125 -14.84375 C 44.847656 -16.550781 46.488281 -18.707031 47.75 -21.3125 L 65.15625 -18.484375 C 62.8125 -11.734375 58.960938 -6.601562 53.609375 -3.09375 C 48.265625 0.40625 42.085938 2.15625 35.078125 2.15625 C 25.273438 2.15625 17.3125 -1.035156 11.1875 -7.421875 C 5.070312 -13.804688 2.015625 -22.171875 2.015625 -32.515625 C 2.015625 -43.390625 4.894531 -52.085938 10.65625 -58.609375 C 16.414062 -65.128906 24.238281 -68.390625 34.125 -68.390625 C 44.019531 -68.390625 51.734375 -65.195312 57.265625 -58.8125 C 62.796875 -52.425781 65.5625 -43.390625 65.5625 -31.703125 L 65.5625 -30.078125 Z M 47.75 -41.8125 C 47.125 -45.945312 45.640625 -49.207031 43.296875 -51.59375 C 40.960938 -53.976562 38.222656 -55.171875 35.078125 -55.171875 C 32.109375 -55.171875 29.453125 -54.09375 27.109375 -51.9375 C 24.773438 -49.78125 23.25 -46.40625 22.53125 -41.8125 Z M 47.75 -41.8125 "/></g></g><g style="fill:#41ade3;fill-opacity:1;"><g transform="translate(536.848038, 478.648174)"><path style="stroke:none" d="M 25.625 -114.390625 L 25.625 -60.15625 C 27.96875 -62.769531 30.753906 -64.796875 33.984375 -66.234375 C 37.222656 -67.671875 40.550781 -68.390625 43.96875 -68.390625 C 49.550781 -68.390625 54.675781 -66.816406 59.34375 -63.671875 C 64.019531 -60.523438 67.660156 -56.226562 70.265625 -50.78125 C 72.878906 -45.34375 74.1875 -39.566406 74.1875 -33.453125 C 74.1875 -26.890625 72.878906 -20.84375 70.265625 -15.3125 C 67.660156 -9.78125 64 -5.484375 59.28125 -2.421875 C 54.5625 0.628906 49.320312 2.15625 43.5625 2.15625 C 40.144531 2.15625 36.816406 1.4375 33.578125 0 C 30.347656 -1.4375 27.789062 -3.503906 25.90625 -6.203125 L 25.625 -6.203125 L 25.625 0 L 6.75 0 L 6.75 -114.390625 Z M 39.25 -51.65625 C 35.019531 -51.65625 31.375 -49.832031 28.3125 -46.1875 C 25.257812 -42.550781 23.734375 -38.21875 23.734375 -33.1875 C 23.734375 -28.0625 25.257812 -23.675781 28.3125 -20.03125 C 31.375 -16.382812 35.066406 -14.5625 39.390625 -14.5625 C 43.972656 -14.5625 47.722656 -16.453125 50.640625 -20.234375 C 53.566406 -24.015625 55.03125 -28.332031 55.03125 -33.1875 C 55.03125 -38.039062 53.546875 -42.332031 50.578125 -46.0625 C 47.609375 -49.789062 43.832031 -51.65625 39.25 -51.65625 Z M 39.25 -51.65625 "/></g></g><g style="fill:#41ade3;fill-opacity:1;"><g transform="translate(613.054935, 478.648174)"><path style="stroke:none" d="M 50.71875 -66.234375 L 69.328125 -66.234375 L 69.328125 0 L 50.71875 0 L 50.71875 -6.0625 L 50.453125 -6.0625 C 48.472656 -3.457031 45.84375 -1.4375 42.5625 0 C 39.28125 1.4375 35.929688 2.15625 32.515625 2.15625 C 23.785156 2.15625 16.519531 -1.28125 10.71875 -8.15625 C 4.914062 -15.039062 2.015625 -23.472656 2.015625 -33.453125 C 2.015625 -39.660156 3.273438 -45.414062 5.796875 -50.71875 C 8.316406 -56.019531 11.890625 -60.289062 16.515625 -63.53125 C 21.148438 -66.769531 26.390625 -68.390625 32.234375 -68.390625 C 35.648438 -68.390625 39 -67.671875 42.28125 -66.234375 C 45.570312 -64.796875 48.382812 -62.726562 50.71875 -60.03125 Z M 36.6875 -51.65625 C 32.457031 -51.65625 28.8125 -49.832031 25.75 -46.1875 C 22.695312 -42.550781 21.171875 -38.21875 21.171875 -33.1875 C 21.171875 -28.144531 22.695312 -23.78125 25.75 -20.09375 C 28.8125 -16.40625 32.503906 -14.5625 36.828125 -14.5625 C 41.234375 -14.5625 44.960938 -16.382812 48.015625 -20.03125 C 51.078125 -23.675781 52.609375 -28.0625 52.609375 -33.1875 C 52.609375 -38.3125 51.054688 -42.671875 47.953125 -46.265625 C 44.847656 -49.859375 41.09375 -51.65625 36.6875 -51.65625 Z M 36.6875 -51.65625 "/></g></g><g style="fill:#41ade3;fill-opacity:1;"><g transform="translate(689.26186, 478.648174)"><path style="stroke:none" d="M 19.015625 -66.234375 L 34.796875 -28.59375 L 51.796875 -66.234375 L 72.84375 -66.234375 L 24.6875 35.34375 L 3.90625 35.34375 L 25.765625 -10.109375 L -2.421875 -66.234375 Z M 19.015625 -66.234375 "/></g></g></g></svg>